# xmcd
# 
# Track frame offsets:
#     150
#     25673
#     38406
#     54455
#     69174
#     87574
#     97605
#     116436
#     129703
#     153555
#     177741
#     193457
# 
# Disc length: 3006
# 
# Revision: 1
# Processed by: cddbd v1.5.2PL0 Copyright (c) Steve Scherf et al.
# Submitted via: fre:ac v1.0.31
# 
DISCID=9b0bbc0c
DTITLE=Coindra - Dolfin's Joy
DYEAR=2012
DGENRE=Folk
TTITLE0=Chicago-Set
TTITLE1=O'Sullivan
TTITLE2=Hey little friend
TTITLE3=Dolfins joy
TTITLE4=Better times
TTITLE5=Alice
TTITLE6=Ride on
TTITLE7=Fleur
TTITLE8=You, who follow
TTITLE9=See this now
TTITLE10=Both sides
TTITLE11=Mary, young and fair
EXTD=
EXTT0=
EXTT1=
EXTT2=
EXTT3=
EXTT4=
EXTT5=
EXTT6=
EXTT7=
EXTT8=
EXTT9=
EXTT10=
EXTT11=
PLAYORDER=
